<svg width="105" height="28" viewBox="0 0 105 28" fill="none" xmlns="http://www.w3.org/2000/svg">
<g clip-path="url(#clip0_28_6706)">
<path d="M87.5649 15.3679C87.9222 15.3801 88.2613 15.5297 88.5123 15.7858C88.7633 16.0419 88.9071 16.3851 88.9143 16.7447C88.9143 17.5442 88.323 18.2317 87.5649 18.2317C87.3696 18.2359 87.1755 18.2002 86.9942 18.127C86.813 18.0537 86.6483 17.9444 86.5101 17.8055C86.3719 17.6666 86.263 17.501 86.19 17.3187C86.117 17.1364 86.0814 16.9412 86.0853 16.7447C86.1014 16.3652 86.266 16.0075 86.5432 15.7496C86.8203 15.4917 87.1876 15.3545 87.5649 15.3679Z" fill="#231F20"/>
<path d="M90.9295 18.139V9.76826H93.0561V10.5869C93.2678 10.2777 93.5535 10.027 93.8868 9.85797C94.22 9.68891 94.5902 9.60693 94.9633 9.61955C95.537 9.61955 95.9805 9.73148 96.257 9.93935L95.5005 11.9477C95.1769 11.7483 94.8069 11.6381 94.4277 11.6279C93.8174 11.6279 93.3548 11.9253 93.0592 12.5201V18.1374L90.9295 18.139Z" fill="#231F20"/>
<path d="M105 9.76825V18.139H102.873V17.1156C102.207 17.9343 101.32 18.3437 100.211 18.3437C98.4916 18.3437 97.2901 17.1716 97.2901 14.8834V9.76666H99.4166V14.4357C99.4166 15.7149 99.9522 16.3545 101.006 16.3545C101.728 16.3545 102.355 16.0203 102.873 15.3328V9.76825H105Z" fill="#231F20"/>
<path d="M51.7109 6.48873H40.2279V11.7654H49.5478V18.2525H40.2279V27.6291H33.0663V0H51.7109V6.48873Z" fill="#E73234"/>
<path d="M65.1885 -1.112e-06C67.1958 -0.0157308 69.1919 0.302495 71.0961 0.941807C72.848 1.52293 74.4684 2.44673 75.8641 3.6601C77.2165 4.85726 78.295 6.33506 79.0253 7.99178C79.7882 9.69737 80.1696 11.6087 80.1696 13.7258C80.1972 15.6837 79.807 17.6249 79.0253 19.4182C78.2892 21.0835 77.212 22.5737 75.8641 23.7914C74.4712 25.0345 72.852 25.994 71.0961 26.6169C69.2008 27.2984 67.2011 27.6388 65.1885 27.6226H55.6207V-1.112e-06H65.1885ZM62.7759 6.53029V21.1371H65.1472C66.1828 21.1465 67.2124 20.9767 68.1908 20.635C69.091 20.3275 69.9191 19.8377 70.6241 19.1959C71.3185 18.5432 71.8691 17.7511 72.2404 16.871C73.0458 14.8353 73.0458 12.5667 72.2404 10.531C71.8727 9.6721 71.3182 8.90713 70.6177 8.29239C69.908 7.68802 69.0817 7.2378 68.1908 6.97002C67.2062 6.67015 66.1822 6.5219 65.1535 6.53029H62.7759Z" fill="#E73234"/>
<path d="M14.161 28.0016C10.9228 28.0017 7.78236 26.8852 5.26312 24.8383C2.74389 22.7913 0.99806 19.9376 0.316624 16.7526C-0.364811 13.5677 0.0593154 10.244 1.51831 7.3355C2.9773 4.42702 5.38303 2.10947 8.3345 0.769117L11.1333 6.98921C9.59514 7.68696 8.34114 8.89409 7.58042 10.4093C6.8197 11.9246 6.59823 13.6564 6.95292 15.3161C7.30762 16.9757 8.21705 18.4629 9.52959 19.5296C10.8421 20.5964 12.4785 21.1783 14.1658 21.1783C15.8531 21.1783 17.4895 20.5964 18.802 19.5296C20.1146 18.4629 21.024 16.9757 21.3787 15.3161C21.7334 13.6564 21.5119 11.9246 20.7512 10.4093C19.9905 8.89409 18.7365 7.68696 17.1983 6.98921L19.9939 0.769117C22.9455 2.10952 25.3513 4.42721 26.8103 7.33586C28.2693 10.2445 28.6933 13.5684 28.0116 16.7534C27.33 19.9384 25.5839 22.7922 23.0644 24.839C20.5449 26.8859 17.4042 28.0021 14.1658 28.0016H14.161Z" fill="#E73234"/>
</g>
<defs>
<clipPath id="clip0_28_6706">
<rect width="105" height="28" fill="white"/>
</clipPath>
</defs>
</svg>
