<svg width="172" height="40" viewBox="0 0 172 40" fill="none" xmlns="http://www.w3.org/2000/svg">
<g clip-path="url(#clip0_199:8346)">
<path d="M10.786 0H29.214C32.965 0 34.325 0.391 35.696 1.124C37.0503 1.84014 38.1582 2.94663 38.876 4.3C39.609 5.675 40 7.035 40 10.786V29.214C40 32.965 39.609 34.325 38.876 35.696C38.1599 37.0503 37.0534 38.1582 35.7 38.876C34.325 39.609 32.965 40 29.214 40H10.786C7.035 40 5.675 39.609 4.304 38.876C2.94973 38.1599 1.84184 37.0534 1.124 35.7C0.391 34.325 0 32.965 0 29.214V10.786C0 7.035 0.391 5.675 1.124 4.3C1.84078 2.94721 2.94721 1.84078 4.3 1.124C5.675 0.391 7.035 0 10.786 0Z" fill="#F6F42E"/>
<path d="M108.033 11.7272H106.664V13.5172H105.833V9.24121H106.664V10.9822H108.033V9.24121H108.864V13.5172H108.033V11.7272Z" fill="#63666A"/>
<path d="M110.668 13.5172H109.833L111.211 9.24121H112.047L113.419 13.5172H112.541L112.233 12.5702H110.961L110.668 13.5172ZM111.583 10.4682L111.156 11.8982H112.071L111.639 10.4682H111.583Z" fill="#63666A"/>
<path d="M117.695 14.3412H116.947V13.5192H114.247V9.24121H115.107V12.7742H116.307V9.24121H117.166V12.7742H117.692L117.695 14.3412Z" fill="#63666A"/>
<path d="M120.723 11.2572L120.771 10.7012H120.744L120.495 11.2752L119.294 13.5172H118.523V9.24121H119.354V11.4582L119.294 12.0332H119.33L119.591 11.4412L120.792 9.24121H121.558V13.5172H120.723V11.2572Z" fill="#63666A"/>
<path d="M124.453 13.7929C124.187 13.8003 123.923 13.7423 123.684 13.6239C123.476 13.5134 123.3 13.3525 123.171 13.1559C123.031 12.936 122.934 12.6917 122.885 12.4359C122.824 12.133 122.795 11.8247 122.797 11.5159C122.794 11.1948 122.827 10.8744 122.897 10.5609C122.952 10.3033 123.057 10.0588 123.205 9.84087C123.338 9.65254 123.516 9.50002 123.722 9.39687C123.95 9.28838 124.201 9.23495 124.453 9.24087C124.718 9.23344 124.98 9.29149 125.217 9.40987C125.424 9.521 125.599 9.68227 125.727 9.87887C125.867 10.0987 125.965 10.3424 126.016 10.5979C126.079 10.9001 126.11 11.2082 126.107 11.5169C126.139 12.1025 125.997 12.6846 125.697 13.1889C125.568 13.383 125.39 13.5394 125.18 13.6419C124.952 13.7465 124.704 13.7982 124.453 13.7929ZM124.453 10.0039C124.325 9.99337 124.197 10.0249 124.089 10.0937C123.981 10.1624 123.898 10.2647 123.853 10.3849C123.732 10.7492 123.68 11.1325 123.697 11.5159C123.696 11.7146 123.705 11.9132 123.725 12.1109C123.739 12.2743 123.775 12.4351 123.832 12.5889C123.877 12.7144 123.955 12.8256 124.057 12.9109C124.17 12.9947 124.309 13.0367 124.449 13.0299C124.577 13.0356 124.705 13.0047 124.816 12.9409C124.919 12.8724 124.999 12.7759 125.048 12.6629C125.114 12.513 125.155 12.3537 125.17 12.1909C125.195 11.9678 125.207 11.7434 125.205 11.5189C125.205 11.3189 125.197 11.1189 125.182 10.9379C125.172 10.7732 125.139 10.6108 125.082 10.4559C125.037 10.3273 124.958 10.2133 124.854 10.1259C124.739 10.0396 124.597 9.99641 124.453 10.0039Z" fill="#63666A"/>
<path d="M129.275 11.7272H127.906V13.5172H127.075V9.24121H127.906V10.9822H129.275V9.24121H130.106V13.5172H129.275V11.7272Z" fill="#63666A"/>
<path d="M131.911 13.5172H131.075L132.453 9.24121H133.289L134.661 13.5172H133.783L133.483 12.5702H132.204L131.911 13.5172ZM132.825 10.4682L132.399 11.8982H133.314L132.881 10.4682H132.825Z" fill="#63666A"/>
<path d="M137.94 10.0032H137.132C137.111 10.3985 137.089 10.7589 137.066 11.0842C137.043 11.4095 137.013 11.7019 136.978 11.9612C136.95 12.1903 136.908 12.4174 136.851 12.6412C136.809 12.8149 136.742 12.9814 136.651 13.1352C136.557 13.3076 136.416 13.4495 136.244 13.5442C136.1 13.615 135.941 13.652 135.78 13.6522C135.695 13.6533 135.609 13.6439 135.526 13.6242C135.466 13.6126 135.407 13.5938 135.351 13.5682L135.445 12.8312C135.468 12.8402 135.492 12.8465 135.517 12.8502C135.543 12.854 135.57 12.856 135.596 12.8562C135.666 12.8547 135.734 12.838 135.796 12.8072C135.871 12.7699 135.935 12.7124 135.979 12.6412C136.05 12.5133 136.101 12.3749 136.129 12.2312C136.177 12.0045 136.21 11.7751 136.229 11.5442C136.256 11.2675 136.277 10.9389 136.292 10.5582C136.307 10.1775 136.321 9.73854 136.336 9.24121H138.799V13.6112H137.94V10.0032Z" fill="#63666A"/>
<path d="M141.276 13.6552H141.101H141.04C140.94 13.6552 140.819 13.6462 140.718 13.6392C140.592 13.6302 140.476 13.6202 140.365 13.6092C140.256 13.5963 140.147 13.5762 140.04 13.5492V9.24121H140.895V10.8022C140.915 10.8022 140.948 10.7932 140.995 10.7872C141.042 10.7812 141.095 10.7752 141.151 10.7712L141.251 10.7632H141.319C141.373 10.7632 141.43 10.7572 141.481 10.7572C141.68 10.7567 141.879 10.7775 142.074 10.8192C142.257 10.8576 142.431 10.9328 142.584 11.0402C142.736 11.1508 142.857 11.298 142.936 11.4682C143.031 11.6845 143.075 11.9193 143.067 12.1552C143.081 12.366 143.047 12.5773 142.966 12.7726C142.886 12.9679 142.761 13.142 142.602 13.2812C142.216 13.5536 141.748 13.6855 141.276 13.6552ZM141.32 11.5102C141.291 11.5102 141.256 11.5102 141.213 11.5162L141.14 11.5242L141.086 11.5302C141.04 11.5332 141.004 11.5412 140.973 11.5412C140.942 11.5412 140.913 11.5522 140.895 11.5572V12.8572C140.956 12.8724 141.018 12.8818 141.08 12.8852C141.155 12.8922 141.233 12.8952 141.32 12.8952C141.431 12.8954 141.542 12.8837 141.651 12.8602C141.75 12.8393 141.843 12.7989 141.926 12.7412C142.006 12.6847 142.069 12.6086 142.11 12.5202C142.157 12.4145 142.179 12.2997 142.175 12.1842C142.179 12.0657 142.155 11.948 142.103 11.8412C142.059 11.7573 141.995 11.6861 141.916 11.6342C141.833 11.5819 141.74 11.5478 141.643 11.5342C141.536 11.5177 141.428 11.5097 141.32 11.5102Z" fill="#63666A"/>
<path d="M146.24 11.7272H144.871V13.5172H144.04V9.24121H144.871V10.9822H146.24V9.24121H147.071V13.5172H146.24V11.7272Z" fill="#63666A"/>
<path d="M148.875 13.5172H148.04L149.418 9.24121H150.254L151.626 13.5172H150.748L150.44 12.5702H149.168L148.875 13.5172ZM149.791 10.4692L149.364 11.8992H150.279L149.846 10.4692H149.791Z" fill="#63666A"/>
<path d="M153.442 13.655H152.454L153.541 11.883C153.441 11.8437 153.347 11.7927 153.259 11.731C153.163 11.6637 153.079 11.5813 153.009 11.487C152.93 11.3782 152.87 11.2572 152.83 11.129C152.782 10.9709 152.759 10.8062 152.762 10.641C152.754 10.3936 152.821 10.1495 152.954 9.94098C153.075 9.75971 153.232 9.60629 153.417 9.49098C153.575 9.39174 153.75 9.32383 153.933 9.29098C154.144 9.25514 154.357 9.23841 154.571 9.24098C154.641 9.24098 154.722 9.24098 154.811 9.24798C154.9 9.25498 154.997 9.25798 155.092 9.26698C155.187 9.27598 155.292 9.28598 155.376 9.29798C155.46 9.30878 155.544 9.32515 155.626 9.34698V13.655H154.781V12.033H154.368L153.442 13.655ZM154.46 9.99998C154.362 10.0005 154.264 10.0122 154.169 10.035C154.077 10.0549 153.99 10.0964 153.917 10.156C153.843 10.2151 153.781 10.2881 153.735 10.371C153.68 10.4641 153.651 10.5707 153.652 10.679C153.65 10.7787 153.671 10.8775 153.713 10.968C153.754 11.0519 153.811 11.127 153.881 11.189C153.965 11.2598 154.064 11.3099 154.17 11.335C154.287 11.3658 154.407 11.3816 154.528 11.382H154.781V10.03C154.742 10.023 154.694 10.015 154.642 10.01C154.582 10.0029 154.521 9.99959 154.46 9.99998Z" fill="#63666A"/>
<path d="M108.324 20.9251H109.005V22.1771C108.854 22.2822 108.684 22.3584 108.505 22.4021C108.3 22.4566 108.089 22.4838 107.876 22.4831C107.612 22.4844 107.349 22.4432 107.098 22.3611C106.855 22.2818 106.634 22.1473 106.451 21.9681C106.251 21.768 106.097 21.5267 106 21.2611C105.881 20.9228 105.825 20.5656 105.833 20.2071C105.822 19.8393 105.887 19.4731 106.022 19.1311C106.132 18.8654 106.298 18.6265 106.508 18.4311C106.7 18.257 106.926 18.1261 107.172 18.0471C107.404 17.9715 107.646 17.9324 107.89 17.9311C108.102 17.9274 108.313 17.9482 108.519 17.9931C108.666 18.0264 108.808 18.075 108.944 18.1381V19.4381H108.262V18.7261C108.13 18.7043 107.996 18.6936 107.862 18.6941C107.708 18.693 107.555 18.724 107.413 18.7851C107.272 18.8475 107.147 18.9428 107.05 19.0631C106.941 19.2021 106.86 19.3611 106.812 19.5311C106.751 19.75 106.721 19.9767 106.725 20.2041C106.723 20.4122 106.75 20.6196 106.806 20.8201C106.854 20.993 106.934 21.1552 107.042 21.2981C107.142 21.4298 107.272 21.536 107.421 21.6081C107.58 21.6829 107.753 21.7202 107.928 21.7171C108.062 21.7179 108.196 21.7055 108.328 21.6801L108.324 20.9251Z" fill="#63666A"/>
<path d="M112.309 19.9472L112.358 19.3902H112.33L112.081 19.9652L110.879 22.2072H110.109V17.9312H110.94V20.1482L110.88 20.7222H110.916L111.177 20.1312L112.379 17.9312H113.143V22.2072H112.309V19.9472Z" fill="#63666A"/>
<path d="M116.738 20.9251H117.419V22.1771C117.268 22.2822 117.098 22.3585 116.919 22.4021C116.714 22.4566 116.503 22.4838 116.29 22.4831C116.026 22.4845 115.764 22.4433 115.513 22.3611C115.27 22.2821 115.048 22.1475 114.866 21.9681C114.666 21.7682 114.512 21.5269 114.414 21.2611C114.295 20.9229 114.238 20.5657 114.247 20.2071C114.237 19.8393 114.301 19.4733 114.436 19.1311C114.546 18.8654 114.712 18.6266 114.922 18.4311C115.113 18.257 115.339 18.126 115.585 18.0471C115.817 17.9715 116.06 17.9323 116.304 17.9311C116.516 17.9273 116.727 17.9481 116.933 17.9931C117.079 18.0266 117.221 18.0752 117.357 18.1381V19.4381H116.676V18.7261C116.544 18.7043 116.41 18.6936 116.276 18.6941C116.122 18.6932 115.969 18.7242 115.827 18.7851C115.686 18.8476 115.562 18.9429 115.465 19.0631C115.355 19.2017 115.274 19.3608 115.226 19.5311C115.164 19.75 115.135 19.9767 115.139 20.2041C115.137 20.4122 115.165 20.6196 115.22 20.8201C115.268 20.9929 115.347 21.1551 115.455 21.2981C115.555 21.4294 115.685 21.5355 115.833 21.6081C115.992 21.6828 116.166 21.72 116.341 21.7171C116.475 21.7178 116.609 21.7054 116.741 21.6801L116.738 20.9251Z" fill="#63666A"/>
<path d="M118.826 21.5312H119.547V18.6032H118.947V19.3432H118.247V17.9312H121.695V19.3422H121.003V18.6032H120.403V21.5312H121.114V22.2022H118.826V21.5312Z" fill="#63666A"/>
<path d="M122.661 17.9312H125.527V18.6762H123.516V19.6762H125.37V20.4212H123.516V21.4622H125.561V22.2072H122.661V17.9312Z" fill="#63666A"/>
<path d="M128.998 19.9312L129.028 19.2652H128.992L128.308 20.3812H128.161L127.448 19.2622H127.417L127.454 19.8622V22.2072H126.661V17.9312H127.509L128.241 19.1162H128.261L128.992 17.9312H129.834V22.2072H128.998V19.9312Z" fill="#63666A"/>
<path d="M131.497 22.2072H130.661L132.04 17.9312H132.875L134.247 22.2072H133.37L133.061 21.2602H131.79L131.497 22.2072ZM132.412 19.1592L131.985 20.5892H132.9L132.467 19.1592H132.412Z" fill="#63666A"/>
<path d="M140.87 23.0312H140.122V22.2092H137.422V17.9312H138.281V21.4642H139.481V17.9312H140.34V21.4642H140.866L140.87 23.0312Z" fill="#63666A"/>
<path d="M144.173 19.9472L144.222 19.3902H144.194L143.946 19.9652L142.744 22.2072H141.973V17.9312H142.804V20.1482L142.744 20.7222H142.78L143.041 20.1312L144.243 17.9312H145.008V22.2072H144.173V19.9472Z" fill="#63666A"/>
<path d="M148.31 22.4832H147.497V21.9542C147.314 21.9436 147.133 21.9055 146.961 21.8412C146.792 21.7754 146.641 21.6689 146.522 21.5312C146.386 21.3697 146.284 21.1822 146.222 20.9802C146.142 20.7097 146.104 20.4283 146.11 20.1462C146.103 19.8681 146.143 19.5908 146.228 19.3262C146.293 19.1284 146.401 18.9472 146.543 18.7952C146.669 18.667 146.821 18.5677 146.988 18.5042C147.152 18.4445 147.323 18.4108 147.497 18.4042V17.9312H148.31V18.3992C148.484 18.4093 148.655 18.4429 148.819 18.4992C148.986 18.555 149.138 18.648 149.263 18.7712C149.406 18.9203 149.514 19.0997 149.578 19.2962C149.665 19.5706 149.704 19.8576 149.696 20.1452C149.703 20.428 149.665 20.7101 149.584 20.9812C149.522 21.183 149.42 21.3703 149.284 21.5322C149.165 21.6695 149.013 21.775 148.842 21.8392C148.671 21.9028 148.491 21.9409 148.309 21.9522V22.4812L148.31 22.4832ZM147.54 19.0762C147.445 19.0796 147.352 19.1066 147.27 19.1548C147.188 19.203 147.119 19.2708 147.069 19.3522C146.954 19.6024 146.904 19.8774 146.922 20.1522C146.919 20.3369 146.934 20.5214 146.967 20.7032C146.989 20.8239 147.032 20.9395 147.096 21.0442C147.145 21.1209 147.214 21.1826 147.296 21.2222C147.375 21.2582 147.459 21.2818 147.545 21.2922L147.54 19.0762ZM148.267 19.0762V21.2962C148.352 21.2852 148.435 21.2616 148.513 21.2262C148.595 21.1869 148.665 21.1252 148.713 21.0482C148.777 20.9434 148.82 20.8278 148.842 20.7072C148.875 20.5254 148.89 20.3409 148.887 20.1562C148.906 19.8814 148.855 19.6064 148.74 19.3562C148.691 19.2739 148.622 19.2052 148.539 19.1563C148.457 19.1074 148.363 19.0799 148.267 19.0762Z" fill="#63666A"/>
<path d="M151.929 22.3452H151.075V18.0372C151.248 18.0042 151.442 17.9782 151.652 17.9592C151.862 17.9402 152.075 17.9312 152.275 17.9312C152.494 17.9312 152.712 17.9489 152.927 17.9842C153.135 18.0158 153.335 18.0875 153.516 18.1952C153.694 18.3038 153.842 18.4554 153.945 18.6362C154.064 18.863 154.121 19.1172 154.11 19.3732C154.117 19.6082 154.068 19.8415 153.967 20.0542C153.877 20.2359 153.747 20.3951 153.587 20.5202C153.426 20.6434 153.243 20.7343 153.048 20.7882C152.844 20.844 152.633 20.8722 152.421 20.8722H152.321C152.268 20.8722 152.221 20.8722 152.178 20.8722C152.135 20.8722 152.078 20.8722 152.032 20.8642C151.986 20.8562 151.95 20.8562 151.932 20.8522V22.3522L151.929 22.3452ZM152.346 18.6652C152.264 18.6652 152.184 18.6652 152.109 18.6742C152.034 18.6832 151.975 18.6882 151.929 18.6962V20.1072C151.954 20.1129 151.979 20.1172 152.004 20.1202C152.037 20.1202 152.071 20.1272 152.104 20.1292H152.118H152.212H152.29C152.402 20.1293 152.513 20.1185 152.623 20.0972C152.73 20.0793 152.832 20.0405 152.923 19.9832C153.012 19.9253 153.084 19.8449 153.132 19.7502C153.189 19.6274 153.215 19.4931 153.21 19.3582C153.214 19.2406 153.189 19.124 153.135 19.0192C153.087 18.9328 153.018 18.8594 152.935 18.8052C152.853 18.7517 152.761 18.7147 152.664 18.6962C152.559 18.6754 152.453 18.665 152.346 18.6652Z" fill="#63666A"/>
<path d="M156.866 22.4829C156.6 22.4917 156.336 22.4336 156.098 22.3139C155.89 22.2039 155.713 22.0429 155.584 21.8459C155.446 21.6274 155.349 21.3849 155.299 21.1309C155.238 20.8268 155.209 20.5171 155.211 20.2069C155.208 19.8854 155.241 19.5647 155.311 19.2509C155.366 18.9933 155.471 18.7488 155.619 18.5309C155.752 18.3429 155.93 18.1908 156.136 18.0879C156.364 17.9787 156.614 17.9249 156.866 17.9309C157.131 17.923 157.394 17.981 157.631 18.0999C157.838 18.2109 158.014 18.3722 158.142 18.5689C158.282 18.7888 158.379 19.0325 158.43 19.2879C158.493 19.5901 158.524 19.8982 158.521 20.2069C158.554 20.7926 158.411 21.3746 158.111 21.8789C157.982 22.0731 157.804 22.2294 157.594 22.3319C157.366 22.4366 157.117 22.4882 156.866 22.4829ZM156.866 18.6939C156.738 18.6834 156.611 18.7149 156.502 18.7837C156.394 18.8525 156.311 18.9547 156.266 19.0749C156.146 19.4396 156.093 19.8233 156.111 20.2069C156.11 20.4052 156.119 20.6035 156.139 20.8009C156.153 20.9642 156.189 21.125 156.245 21.2789C156.29 21.4046 156.368 21.5158 156.471 21.6009C156.584 21.6843 156.722 21.726 156.862 21.7189C156.99 21.7246 157.116 21.6933 157.226 21.6289C157.329 21.5606 157.409 21.464 157.458 21.3509C157.523 21.2009 157.564 21.0416 157.58 20.8789C157.605 20.6557 157.616 20.4314 157.614 20.2069C157.614 20.0069 157.607 19.8139 157.593 19.6259C157.583 19.4613 157.549 19.2991 157.493 19.1439C157.449 19.0165 157.371 18.9033 157.268 18.8159C157.153 18.7291 157.01 18.6859 156.866 18.6939Z" fill="#63666A"/>
<path d="M161.12 22.3452H160.853C160.745 22.3452 160.63 22.3452 160.501 22.3362C160.372 22.3272 160.244 22.3202 160.12 22.3082C160.001 22.2976 159.882 22.2792 159.766 22.2532V18.0232C159.844 18.0112 159.931 17.9992 160.033 17.9862C160.135 17.9732 160.233 17.9642 160.356 17.9562C160.46 17.9492 160.573 17.9432 160.711 17.9372C160.849 17.9312 160.966 17.9312 161.066 17.9312C161.263 17.9309 161.459 17.9463 161.654 17.9772C161.832 18.0037 162.005 18.0584 162.166 18.1392C162.312 18.214 162.437 18.3265 162.526 18.4652C162.623 18.6229 162.672 18.8059 162.666 18.9912C162.666 19.0991 162.652 19.2066 162.626 19.3112C162.6 19.4154 162.555 19.514 162.494 19.6022C162.428 19.6936 162.347 19.7725 162.254 19.8352C162.145 19.9071 162.024 19.958 161.897 19.9852V20.0222C162.017 20.0406 162.135 20.0742 162.248 20.1222C162.356 20.1692 162.454 20.2371 162.537 20.3222C162.621 20.4125 162.687 20.5185 162.731 20.6342C162.781 20.774 162.805 20.9217 162.802 21.0702C162.807 21.2704 162.757 21.4683 162.66 21.6432C162.567 21.8044 162.437 21.9415 162.282 22.0432C162.116 22.1484 161.934 22.2251 161.743 22.2702C161.539 22.3201 161.33 22.3453 161.12 22.3452ZM160.566 20.4312V21.6032C160.598 21.614 160.632 21.6203 160.666 21.6222H160.695L160.809 21.6292H160.861H160.882H160.968C161.028 21.6292 161.077 21.6292 161.113 21.6292C161.214 21.6296 161.315 21.6175 161.413 21.5932C161.502 21.5741 161.588 21.5396 161.666 21.4912C161.739 21.4412 161.8 21.3756 161.845 21.2992C161.891 21.2175 161.915 21.1251 161.915 21.0312C161.923 20.929 161.899 20.8269 161.847 20.7385C161.796 20.6502 161.718 20.5799 161.625 20.5372C161.534 20.4935 161.436 20.4661 161.336 20.4562C161.23 20.4414 161.123 20.433 161.016 20.4312H160.566ZM161.081 18.6312C160.974 18.6312 160.872 18.6312 160.781 18.6372C160.69 18.6432 160.619 18.6522 160.566 18.6602V19.7952H160.842C160.895 19.7952 160.957 19.7952 161.042 19.7892C161.106 19.7864 161.169 19.7801 161.233 19.7702C161.383 19.7263 161.524 19.6521 161.645 19.5522C161.7 19.5055 161.745 19.4468 161.775 19.3804C161.804 19.3141 161.819 19.2418 161.817 19.1692C161.822 19.0787 161.801 18.9886 161.758 18.9092C161.717 18.8416 161.66 18.7852 161.593 18.7452C161.519 18.7035 161.44 18.6747 161.357 18.6602C161.266 18.6439 161.173 18.6359 161.081 18.6362V18.6312Z" fill="#63666A"/>
<path d="M165.695 22.4828C165.429 22.4909 165.165 22.4328 164.927 22.3138C164.719 22.2039 164.542 22.0429 164.413 21.8458C164.274 21.6275 164.178 21.3849 164.128 21.1308C164.067 20.8267 164.038 20.517 164.04 20.2068C164.037 19.8854 164.071 19.5647 164.14 19.2508C164.196 18.9933 164.3 18.7488 164.448 18.5308C164.581 18.3427 164.758 18.1905 164.964 18.0878C165.192 17.9785 165.443 17.9247 165.695 17.9308C165.96 17.9232 166.223 17.9813 166.46 18.0998C166.667 18.2111 166.843 18.3723 166.971 18.5688C167.111 18.7887 167.208 19.0325 167.259 19.2878C167.322 19.5901 167.353 19.8981 167.35 20.2068C167.383 20.7926 167.24 21.3747 166.94 21.8788C166.811 22.0729 166.633 22.2292 166.424 22.3318C166.196 22.4368 165.947 22.4884 165.695 22.4828ZM165.695 18.6938C165.567 18.6835 165.44 18.7151 165.331 18.7839C165.223 18.8526 165.14 18.9548 165.095 19.0748C164.975 19.4395 164.922 19.8232 164.94 20.2068C164.94 20.4052 164.949 20.6034 164.968 20.8008C164.982 20.9643 165.018 21.1251 165.075 21.2788C165.12 21.4045 165.198 21.5157 165.3 21.6008C165.413 21.6842 165.552 21.7258 165.692 21.7188C165.819 21.7244 165.945 21.6932 166.055 21.6288C166.159 21.5613 166.241 21.4646 166.29 21.3508C166.355 21.2009 166.397 21.0416 166.412 20.8788C166.437 20.6557 166.449 20.4313 166.447 20.2068C166.447 20.0068 166.44 19.8068 166.425 19.6258C166.415 19.4612 166.381 19.2989 166.325 19.1438C166.28 19.016 166.2 18.9028 166.096 18.8158C165.981 18.7296 165.839 18.6864 165.695 18.6938Z" fill="#63666A"/>
<path d="M169.365 22.3451H168.594V17.9771H169.425V20.2421L169.365 20.8281H169.401L169.662 20.2281L170.862 17.9811H171.626V22.3451H170.794V20.0371L170.843 19.4681H170.815L170.567 20.0551L169.367 22.3451H169.365ZM170.194 17.6961C170.04 17.6971 169.886 17.6844 169.735 17.6581C169.608 17.6371 169.486 17.5963 169.373 17.5371C169.271 17.4822 169.184 17.4037 169.119 17.3081C169.048 17.2022 169.005 17.0801 168.994 16.9531L169.747 16.8281C169.75 16.8837 169.765 16.938 169.79 16.9876C169.815 17.0372 169.851 17.081 169.894 17.1161C169.982 17.1764 170.087 17.2069 170.194 17.2031C170.248 17.2111 170.303 17.2078 170.356 17.1932C170.409 17.1786 170.458 17.1532 170.5 17.1186C170.542 17.0839 170.577 17.0408 170.602 16.992C170.627 16.9432 170.641 16.8898 170.644 16.8351L171.317 16.9411C171.304 17.0562 171.265 17.167 171.205 17.266C171.145 17.3649 171.064 17.4496 170.968 17.5141C170.732 17.6462 170.464 17.7092 170.194 17.6961Z" fill="#63666A"/>
<path d="M108.17 28.7588L108.2 28.0928H108.163L107.48 29.2088H107.333L106.62 28.0908H106.59L106.626 28.6908V31.0348H105.833V26.7588H106.681L107.413 27.9438H107.433L108.163 26.7588H109.005V31.0348H108.17V28.7588Z" fill="#63666A"/>
<path d="M110.944 31.0348H110.109L111.488 26.7588H112.323L113.695 31.0348H112.817L112.509 30.0878H111.237L110.944 31.0348ZM111.859 27.9868L111.433 29.4168H112.347L111.909 27.9868H111.859Z" fill="#63666A"/>
<path d="M115.79 31.0351H114.937V26.7271C115.128 26.6913 115.32 26.6653 115.513 26.6491C115.721 26.6301 115.931 26.6211 116.137 26.6211C116.355 26.6211 116.573 26.6388 116.788 26.6741C116.996 26.706 117.196 26.7777 117.377 26.8851C117.554 26.9937 117.701 27.1454 117.803 27.3261C117.922 27.5528 117.98 27.8071 117.969 28.0631C117.975 28.2979 117.926 28.5309 117.825 28.7431C117.735 28.9255 117.605 29.0852 117.445 29.2101C117.284 29.3334 117.101 29.4241 116.906 29.4771C116.702 29.5331 116.492 29.5613 116.28 29.5611H116.18C116.135 29.5611 116.087 29.5611 116.037 29.5611C115.987 29.5611 115.947 29.5611 115.89 29.5521C115.856 29.5499 115.823 29.5459 115.79 29.5401V31.0401V31.0351ZM116.208 27.3541C116.128 27.3541 116.05 27.3541 115.972 27.3641C115.894 27.3741 115.837 27.3771 115.79 27.3861V28.7961C115.814 28.8028 115.839 28.8075 115.864 28.8101L115.971 28.8181C116.008 28.8181 116.043 28.8181 116.08 28.8181H116.157C116.269 28.8183 116.381 28.8079 116.491 28.7871C116.598 28.7694 116.7 28.7303 116.791 28.6721C116.88 28.615 116.952 28.5348 116.999 28.4401C117.056 28.3177 117.084 28.1832 117.078 28.0481C117.082 27.9309 117.056 27.8146 117.003 27.7101C116.955 27.6234 116.886 27.5497 116.803 27.4951C116.718 27.441 116.624 27.404 116.525 27.3861C116.421 27.3651 116.314 27.3544 116.208 27.3541Z" fill="#63666A"/>
<path d="M120.522 29.2508H120.076V31.0348H119.215V26.7588H120.076V28.5058H120.522L121.526 26.7588H122.506L121.268 28.8238L122.663 31.0348H121.602L120.522 29.2508Z" fill="#63666A"/>
<path d="M125.829 28.7748L125.878 28.2188H125.848L125.599 28.7928L124.399 31.0348H123.629V26.7588H124.46V28.9768L124.399 29.5498H124.436L124.696 28.9588L125.899 26.7588H126.664V31.0348H125.829V28.7748Z" fill="#63666A"/>
<path d="M129.034 31.0351H128.18V26.7271C128.37 26.6913 128.562 26.6653 128.756 26.6491C128.964 26.6301 129.18 26.6211 129.38 26.6211C129.598 26.6211 129.815 26.6388 130.031 26.6741C130.239 26.7061 130.439 26.7777 130.62 26.8851C130.798 26.9937 130.946 27.1454 131.05 27.3261C131.168 27.5532 131.225 27.8072 131.215 28.0631C131.221 28.2979 131.172 28.5309 131.071 28.7431C130.981 28.9255 130.851 29.0852 130.691 29.2101C130.53 29.3334 130.347 29.4241 130.152 29.4771C129.947 29.5331 129.737 29.5613 129.525 29.5611H129.425C129.38 29.5611 129.332 29.5611 129.282 29.5611C129.232 29.5611 129.192 29.5611 129.136 29.5521C129.102 29.5499 129.069 29.5459 129.036 29.5401V31.0401L129.034 31.0351ZM129.451 27.3541C129.371 27.3541 129.293 27.3541 129.214 27.3641C129.135 27.3741 129.08 27.3771 129.034 27.3861V28.7961C129.058 28.8028 129.083 28.8075 129.108 28.8101L129.214 28.8181C129.251 28.8181 129.288 28.8181 129.323 28.8181H129.401C129.512 28.8183 129.624 28.8079 129.734 28.7871C129.84 28.7694 129.942 28.7303 130.034 28.6721C130.123 28.6148 130.194 28.5347 130.242 28.4401C130.299 28.3177 130.326 28.1832 130.321 28.0481C130.325 27.9309 130.299 27.8146 130.246 27.7101C130.197 27.6234 130.129 27.5496 130.046 27.4951C129.961 27.4408 129.867 27.4037 129.768 27.3861C129.663 27.3651 129.557 27.3544 129.451 27.3541Z" fill="#63666A"/>
<path d="M134.109 31.1728C133.843 31.18 133.579 31.1216 133.341 31.0028C133.133 30.8926 132.955 30.7316 132.826 30.5348C132.687 30.3166 132.591 30.0744 132.542 29.8208C132.481 29.5166 132.451 29.207 132.454 28.8968C132.45 28.575 132.484 28.2539 132.554 27.9398C132.609 27.6824 132.713 27.4382 132.861 27.2208C132.995 27.033 133.173 26.8809 133.379 26.7778C133.607 26.6689 133.857 26.6151 134.109 26.6208C134.374 26.6132 134.637 26.6713 134.874 26.7898C135.081 26.901 135.256 27.0622 135.385 27.2588C135.524 27.4788 135.622 27.7225 135.673 27.9778C135.735 28.28 135.766 28.5881 135.764 28.8968C135.796 29.4824 135.653 30.0644 135.354 30.5688C135.224 30.7627 135.046 30.919 134.837 31.0218C134.609 31.1266 134.36 31.1782 134.109 31.1728ZM134.109 27.3838C133.981 27.3734 133.853 27.405 133.745 27.4738C133.637 27.5425 133.554 27.6447 133.509 27.7648C133.389 28.1295 133.336 28.5131 133.354 28.8968C133.353 29.0948 133.363 29.2927 133.382 29.4898C133.396 29.6534 133.432 29.8145 133.489 29.9688C133.534 30.0946 133.613 30.2058 133.716 30.2908C133.828 30.375 133.967 30.4171 134.107 30.4098C134.235 30.4151 134.362 30.3843 134.473 30.3208C134.575 30.252 134.656 30.1551 134.705 30.0418C134.77 29.8916 134.811 29.7324 134.827 29.5698C134.851 29.3466 134.862 29.1222 134.861 28.8978C134.861 28.6918 134.854 28.4978 134.84 28.3168C134.829 28.1522 134.796 27.99 134.74 27.8348C134.694 27.7068 134.615 27.5932 134.511 27.5058C134.395 27.4196 134.253 27.3765 134.109 27.3838Z" fill="#63666A"/>
<path d="M138.362 31.0351H138.094C137.978 31.0351 137.86 31.0351 137.743 31.0261C137.608 31.0211 137.485 31.0101 137.362 30.9981C137.243 30.9872 137.125 30.9689 137.008 30.9431V26.7131C137.086 26.7011 137.176 26.6881 137.275 26.6761C137.374 26.6641 137.489 26.6531 137.599 26.6451C137.709 26.6371 137.823 26.6321 137.952 26.6271C138.06 26.6211 138.175 26.6211 138.308 26.6211C138.504 26.621 138.701 26.6364 138.895 26.6671C139.074 26.6932 139.247 26.7483 139.408 26.8301C139.554 26.9047 139.678 27.0169 139.767 27.1551C139.863 27.3137 139.91 27.4969 139.903 27.6821C139.903 27.7893 139.889 27.8962 139.863 28.0001C139.837 28.1043 139.792 28.2029 139.731 28.2911C139.665 28.3827 139.584 28.4616 139.49 28.5241C139.381 28.5962 139.26 28.647 139.133 28.6741V28.7111C139.254 28.7291 139.372 28.7627 139.484 28.8111C139.595 28.8594 139.695 28.9299 139.778 29.0183C139.861 29.1066 139.926 29.2111 139.967 29.3251C140.017 29.4649 140.041 29.6127 140.038 29.7611C140.043 29.9614 139.994 30.1593 139.896 30.3341C139.803 30.4955 139.674 30.6327 139.518 30.7341C139.352 30.839 139.17 30.9154 138.979 30.9601C138.777 31.0098 138.57 31.035 138.362 31.0351ZM137.808 29.1211V30.2931C137.84 30.304 137.874 30.3104 137.908 30.3121H137.92C137.965 30.3121 138.006 30.3191 138.051 30.3201H138.196H138.208C138.257 30.3201 138.308 30.3201 138.353 30.3201C138.454 30.3203 138.555 30.3078 138.653 30.2831C138.743 30.2644 138.829 30.2302 138.908 30.1821C138.981 30.1324 139.043 30.0672 139.088 29.9911C139.134 29.9088 139.158 29.8156 139.156 29.7211C139.162 29.61 139.134 29.4997 139.076 29.4051C139.023 29.3269 138.951 29.2636 138.867 29.2211C138.776 29.1773 138.678 29.1495 138.578 29.1391C138.472 29.127 138.365 29.121 138.258 29.1211H137.808ZM138.323 27.3211C138.197 27.3211 138.104 27.3211 138.023 27.3271C137.951 27.3303 137.879 27.3383 137.808 27.3511V28.4851H138.084C138.137 28.4851 138.202 28.4851 138.284 28.4781C138.348 28.4755 138.412 28.4695 138.475 28.4601C138.625 28.4155 138.765 28.341 138.886 28.2411C138.942 28.1947 138.986 28.1362 139.016 28.07C139.046 28.0038 139.06 27.9317 139.058 27.8591C139.062 27.7688 139.042 27.6789 139 27.5991C138.959 27.5316 138.903 27.4753 138.835 27.4351C138.762 27.3929 138.682 27.3645 138.599 27.3511C138.508 27.3343 138.415 27.3259 138.323 27.3261V27.3211Z" fill="#63666A"/>
<path d="M142.728 29.2508H142.282V31.0348H141.422V26.7588H142.282V28.5058H142.727L143.733 26.7588H144.713L143.475 28.8238L144.875 31.0348H143.808L142.728 29.2508Z" fill="#63666A"/>
<path d="M148.033 28.7748L148.082 28.2188H148.052L147.803 28.7928L146.604 31.0348H145.833V26.7588H146.665V28.9768L146.604 29.5498H146.64L146.901 28.9588L148.102 26.7588H148.867V31.0348H148.033V28.7748Z" fill="#63666A"/>
<path d="M29.9902 8.1157C30.4948 8.11781 30.9781 8.31977 31.3342 8.67736C31.6903 9.03495 31.8902 9.51905 31.8902 10.0237V14.7587H35.8592V10.0237C35.8592 8.46557 35.2414 6.97102 34.1412 5.86766C33.0411 4.76431 31.5483 4.1422 29.9902 4.1377L25.2422 4.1377V8.1157H29.9902Z" fill="#63666A"/>
<path d="M31.8942 30.0012C31.8942 30.5051 31.694 30.9884 31.3377 31.3447C30.9814 31.701 30.4981 31.9012 29.9942 31.9012H25.2422V35.8612H29.9902C31.5456 35.8612 33.0374 35.2442 34.1384 34.1456C35.2395 33.0471 35.8597 31.5566 35.8632 30.0012V25.2412H31.8942V30.0012Z" fill="#63666A"/>
<path d="M8.10472 10.0237C8.10498 9.51913 8.30498 9.03518 8.66102 8.67765C9.01705 8.32011 9.50015 8.11807 10.0047 8.1157H14.7527V4.1377H10.0087C8.45008 4.1414 6.95655 4.76317 5.85574 5.86661C4.75492 6.97004 4.13671 8.46505 4.13672 10.0237V14.7587H8.10472V10.0237Z" fill="#63666A"/>
<path d="M10.0087 31.9022C9.50481 31.9022 9.02153 31.702 8.66522 31.3457C8.3089 30.9894 8.10872 30.5061 8.10872 30.0022V25.2412H4.13672V30.0012C4.1399 31.5566 4.75992 33.0472 5.86076 34.1459C6.9616 35.2447 8.45335 35.8619 10.0087 35.8622H14.7577V31.9022H10.0087Z" fill="#63666A"/>
<path d="M17.7132 29.5173L9.24219 21.0383L12.0422 18.2383L17.7102 23.9113L27.9562 13.6553L30.7562 16.4553L17.7132 29.5173Z" fill="#63666A"/>
<path d="M56.051 25.8842C56.6004 26.5226 56.8933 27.3422 56.873 28.1842C56.8761 28.9082 56.6706 29.6179 56.281 30.2282C55.8392 30.8967 55.2143 31.424 54.481 31.7472C53.5364 32.1605 52.5115 32.358 51.481 32.3252C50.6075 32.3242 49.7374 32.2167 48.89 32.0052C48.1062 31.8222 47.3561 31.5171 46.667 31.1012L47.941 28.4522C48.4421 28.7927 48.9944 29.0509 49.577 29.2172C50.1613 29.3911 50.7674 29.4807 51.377 29.4832C51.8772 29.5084 52.3744 29.3916 52.811 29.1462C52.9771 29.0482 53.114 28.9075 53.2072 28.7386C53.3004 28.5698 53.3466 28.379 53.341 28.1862C53.341 27.3815 52.71 26.9785 51.448 26.9772H49.975V24.7562L52.185 22.3562H47.305V19.6382H56.255V21.8382L53.69 24.6132C54.5967 24.7618 55.4277 25.2092 56.051 25.8842Z" fill="#63666A"/>
<path d="M70.6672 19.6382V32.0522H67.1392V27.2112H62.3322V32.0522H58.8052V19.6382H62.3322V24.3022H67.1392V19.6382H70.6672Z" fill="#63666A"/>
<path d="M84.7372 32.0519H81.2112V29.2979H76.3492V32.0519H72.8752V25.3349C72.8713 24.7468 72.9333 24.1602 73.0602 23.5859C73.1754 23.0699 73.3619 22.5725 73.6142 22.1079C73.852 21.6726 74.1522 21.2744 74.5052 20.9259C74.8582 20.5808 75.2602 20.2897 75.6982 20.0619C76.1569 19.8255 76.6443 19.6494 77.1482 19.5379C77.693 19.4181 78.2494 19.3591 78.8072 19.3619C79.3646 19.3591 79.9207 19.4181 80.4652 19.5379C80.9686 19.6497 81.4556 19.8259 81.9142 20.0619C82.3525 20.2888 82.7548 20.5793 83.1082 20.9239C83.4611 21.2725 83.7612 21.6707 83.9992 22.1059C84.2515 22.5705 84.4379 23.0679 84.5532 23.5839C84.6795 24.1579 84.7412 24.7442 84.7372 25.3319V32.0519ZM78.7892 22.2769C78.4604 22.2611 78.1319 22.3147 77.8252 22.4342C77.5185 22.5538 77.2405 22.7367 77.0092 22.9709C76.5321 23.5469 76.296 24.285 76.3502 25.0309V26.5779H81.2112V25.0309C81.2664 24.2848 81.0302 23.5464 80.5522 22.9709C80.3235 22.7379 80.0484 22.5557 79.7446 22.4361C79.4408 22.3165 79.1153 22.2623 78.7892 22.2769Z" fill="#63666A"/>
<path d="M90.4414 26.1587V32.0517H86.9414V19.6377H90.4414V25.5217H90.5294L94.8904 19.6377H99.0814L94.2954 25.6307L99.2174 32.0507H94.6594L90.4414 26.1587Z" fill="#63666A"/>
<path d="M53.0136 9.43115V15.7762H50.8766V13.7462C50.4976 13.865 50.1036 13.9293 49.7066 13.9372C48.9297 13.9915 48.1604 13.7556 47.5476 13.2752C47.2909 13.0266 47.0917 12.7251 46.9637 12.3915C46.8357 12.058 46.7821 11.7006 46.8066 11.3442V9.43115H48.9426V11.1072C48.9169 11.4152 49.0091 11.7215 49.2006 11.9642C49.3042 12.0627 49.4276 12.1383 49.5625 12.1859C49.6975 12.2334 49.841 12.2519 49.9836 12.2402C50.2877 12.2504 50.591 12.2015 50.8766 12.0962V9.43115H53.0136Z" fill="#63666A"/>
<path d="M59.6321 14.1632V15.7762H54.3911V9.43115H59.5151V11.0452H56.4801V11.7892H59.1461V13.3312H56.4801V14.1652L59.6321 14.1632Z" fill="#63666A"/>
<path d="M62.3468 15.355C61.8117 15.0883 61.3633 14.6753 61.0537 14.1639C60.7441 13.6525 60.586 13.0637 60.5978 12.466C60.586 11.8681 60.7441 11.2792 61.0537 10.7676C61.3633 10.2561 61.8117 9.84284 62.3468 9.57596C62.9184 9.28953 63.5505 9.14512 64.1898 9.15496C64.7647 9.14463 65.3354 9.25536 65.8648 9.47996C66.3428 9.68681 66.761 10.0108 67.0808 10.422L65.7098 11.622C65.5485 11.3971 65.3368 11.2131 65.0916 11.0848C64.8464 10.9564 64.5745 10.8873 64.2978 10.883C64.0946 10.8737 63.8918 10.9071 63.7023 10.981C63.5129 11.0548 63.341 11.1676 63.1978 11.312C63.0565 11.4677 62.9473 11.6498 62.8764 11.8478C62.8055 12.0459 62.7744 12.2559 62.7848 12.466C62.7742 12.6759 62.8052 12.8858 62.8761 13.0837C62.9469 13.2816 63.0563 13.4635 63.1978 13.619C63.3412 13.7631 63.5131 13.8757 63.7025 13.9496C63.8919 14.0235 64.0947 14.057 64.2978 14.048C64.5742 14.0431 64.8457 13.9736 65.0904 13.8449C65.335 13.7162 65.5462 13.532 65.7068 13.307L67.0778 14.507C66.7578 14.9174 66.3396 15.2407 65.8618 15.447C65.3325 15.6719 64.7618 15.783 64.1868 15.773C63.5488 15.7834 62.9177 15.64 62.3468 15.355Z" fill="#63666A"/>
<path d="M73.563 11.0902H71.713V15.7762H69.62V11.0902H67.77V9.43115H73.563V11.0902Z" fill="#63666A"/>
<path d="M80.8723 9.43115V15.7762H78.7003V13.4382H76.7003V15.7762H74.5273V9.43115H76.6963V11.6792H78.6963V9.43115H80.8723Z" fill="#63666A"/>
<path d="M85.5791 15.7762H82.3911V9.43115H84.5221V11.3802H85.8541C86.2135 11.3749 86.5719 11.4194 86.9191 11.5122C87.2068 11.5906 87.4756 11.7267 87.7091 11.9122C87.9241 12.0867 88.0922 12.3122 88.1981 12.5682C88.3122 12.857 88.368 13.1656 88.3621 13.4762C88.3685 13.8138 88.3052 14.1491 88.1761 14.4612C88.0524 14.7447 87.8608 14.9933 87.6181 15.1852C87.3556 15.3896 87.0556 15.5407 86.7351 15.6302C86.3585 15.7328 85.9694 15.7819 85.5791 15.7762ZM84.5221 12.8762V14.2762H85.4321C85.5339 14.2821 85.6357 14.2661 85.7308 14.2293C85.8258 14.1925 85.9119 14.1357 85.9832 14.0629C86.0545 13.99 86.1093 13.9027 86.1439 13.8068C86.1786 13.7109 86.1923 13.6088 86.1841 13.5072C86.1899 13.4184 86.1756 13.3295 86.1421 13.247C86.1087 13.1646 86.0571 13.0908 85.9911 13.0312C85.8272 12.9144 85.6278 12.8585 85.4271 12.8732L84.5221 12.8762ZM91.0811 15.7762H88.9491V9.43115H91.0811V15.7762Z" fill="#63666A"/>
<path d="M98.805 15.776H96.687V12.482L94.496 15.776H92.46V9.424H94.578V12.724L96.778 9.424H98.805V15.776ZM95.628 9.061C95.09 9.1076 94.5522 8.9697 94.103 8.67C93.942 8.52284 93.8164 8.34112 93.7357 8.13848C93.655 7.93584 93.6212 7.71755 93.637 7.5L95.07 7.5C95.056 7.65831 95.0996 7.81635 95.193 7.945C95.2521 7.99627 95.3211 8.03487 95.3958 8.05844C95.4704 8.082 95.5491 8.09002 95.627 8.082C95.787 8.09687 95.9463 8.04759 96.07 7.945C96.1695 7.81911 96.2171 7.65988 96.203 7.5H97.636C97.6515 7.71845 97.6167 7.93755 97.5341 8.1404C97.4516 8.34326 97.3236 8.52445 97.16 8.67C96.7076 8.96854 96.168 9.10626 95.628 9.061Z" fill="#63666A"/>
</g>
<defs>
<clipPath id="clip0_199:8346">
<rect width="171.626" height="40" fill="white"/>
</clipPath>
</defs>
</svg>
